<svg width="25" height="24" fill="none" xmlns="http://www.w3.org/2000/svg"><g clip-path="url(#clip0)" stroke="#06052B" stroke-width="2" stroke-linecap="round" stroke-linejoin="round"><path d="M22.71 6.42a2.78 2.78 0 0 0-1.94-2C19.05 4 12.17 4 12.17 4s-6.88 0-8.6.46a2.78 2.78 0 0 0-1.94 2 29 29 0 0 0-.46 5.29 29 29 0 0 0 .46 5.33A2.78 2.78 0 0 0 3.57 19c1.72.46 8.6.46 8.6.46s6.88 0 8.6-.46a2.78 2.78 0 0 0 1.94-2c.313-1.732.467-3.49.46-5.25a28.996 28.996 0 0 0-.46-5.33z"/><path d="M9.92 15.02l5.75-3.27-5.75-3.27v6.54z"/></g><defs><clipPath id="clip0"><path fill="#fff" transform="translate(.17)" d="M0 0H24V24H0z"/></clipPath></defs></svg>